<?xml version="1.0" encoding="UTF-8" standalone="no"?>
<!-- Created with Inkscape (http://www.inkscape.org/) -->

<svg
   xmlns:dc="http://purl.org/dc/elements/1.1/"
   xmlns:cc="http://creativecommons.org/ns#"
   xmlns:rdf="http://www.w3.org/1999/02/22-rdf-syntax-ns#"
   xmlns:svg="http://www.w3.org/2000/svg"
   xmlns="http://www.w3.org/2000/svg"
   xmlns:sodipodi="http://sodipodi.sourceforge.net/DTD/sodipodi-0.dtd"
   xmlns:inkscape="http://www.inkscape.org/namespaces/inkscape"
   width="210mm"
   height="297mm"
   viewBox="0 0 744.09448819 1052.3622047"
   id="svg2"
   version="1.1"
   inkscape:version="0.91 r13725"
   sodipodi:docname="momodict_logo.svg">
  <defs
     id="defs4" />
  <sodipodi:namedview
     id="base"
     pagecolor="#ffffff"
     bordercolor="#666666"
     borderopacity="1.0"
     inkscape:pageopacity="0.0"
     inkscape:pageshadow="2"
     inkscape:zoom="1"
     inkscape:cx="337.86286"
     inkscape:cy="256.2746"
     inkscape:document-units="px"
     inkscape:current-layer="layer1"
     showgrid="false"
     inkscape:window-width="1280"
     inkscape:window-height="755"
     inkscape:window-x="1920"
     inkscape:window-y="1"
     inkscape:window-maximized="1" />
  <metadata
     id="metadata7">
    <rdf:RDF>
      <cc:Work
         rdf:about="">
        <dc:format>image/svg+xml</dc:format>
        <dc:type
           rdf:resource="http://purl.org/dc/dcmitype/StillImage" />
        <dc:title />
      </cc:Work>
    </rdf:RDF>
  </metadata>
  <g
     inkscape:label="Layer 1"
     inkscape:groupmode="layer"
     id="layer1">
    <g
       id="g4259"
       transform="matrix(1.026,0,0,1.026,-44.107682,-212.7818)">
      <circle
         r="249.51266"
         cy="472.86221"
         cx="407.5"
         id="path4221"
         style="opacity:1;fill:#acacac;fill-opacity:1;stroke:none;stroke-width:0.97465885;stroke-opacity:1" />
      <ellipse
         ry="242.72443"
         rx="244.65077"
         style="opacity:1;fill:#ffffff;fill-opacity:1;stroke:none;stroke-width:0.9518972;stroke-opacity:1"
         id="circle4223"
         cx="406.52533"
         cy="468.98657" />
      <path
         id="ellipse4252"
         d="M 541.58203,318.18555 263.69727,597.67969 406.52539,711.71094 A 244.65077,242.72443 0 0 0 651.17578,468.98633 L 541.58203,318.18555 Z"
         style="opacity:1;fill:#250404;fill-opacity:0.24313725;stroke:none;stroke-width:0.9518972;stroke-opacity:1"
         inkscape:connector-curvature="0" />
      <g
         transform="matrix(0.58576518,0,0,0.58479532,188.91411,207.44918)"
         id="g4210">
        <path
           style="opacity:1;fill:#ff5555;fill-opacity:1;stroke:none;stroke-width:1.77416694"
           d="m 161.24609,182.62109 c -27.61424,0 -50,22.38576 -50,50 0.56904,133.09638 0,400 0,400 0,27.61424 22.38576,50 50,50 l 431.37111,-0.88671 c 9.8289,0 17.7422,-7.91331 17.7422,-17.74219 0,0 0.13239,-308.51442 0,-462.74219 0,-9.82888 -7.9133,-17.74219 -17.7422,-17.74219 -142.1695,0.007 -431.37111,-0.88672 -431.37111,-0.88672 z"
           id="path4179"
           inkscape:connector-curvature="0"
           sodipodi:nodetypes="ccccccccc" />
        <path
           style="opacity:1;fill:#f4e3d7;fill-opacity:1;stroke:none"
           d="m 181.625,560.1055 c -27.61424,0 -50,22.3858 -50,50 0,27.6142 22.38576,50 50,50 4.74982,0 9.33917,-0.0233 13.79297,-0.0684 0.37528,0.0424 0.75561,0.0684 1.14258,0.0684 l 377.97315,0 c 5.54,0 10,-4.46 10,-10 l 0,-80 c 0,-5.54 -4.46,-10 -10,-10 l -377.97315,0 c -0.33767,0 -0.67113,0.0164 -1,0.0488 -4.54544,-0.0256 -9.10323,-0.0488 -13.93555,-0.0488 z"
           id="circle4161"
           inkscape:connector-curvature="0"
           sodipodi:nodetypes="ssscsssssscs" />
        <path
           style="opacity:1;fill:#ff8080;fill-opacity:1;stroke:none;stroke-width:1.77416694"
           d="m 190.45151,182.9263 401.13539,0 c 9.8639,0 17.778,7.941 17.8048,17.80485 l 0.9723,358.32437 c 0,0 -291.96365,-0.57993 -419.91249,-0.57993 -9.86388,0 -17.80484,-7.94097 -17.80484,-17.80485 l 0,-339.93959 c 0,-9.86389 7.94096,-17.80485 17.80484,-17.80485 z"
           id="rect4189"
           inkscape:connector-curvature="0"
           sodipodi:nodetypes="sssccsss" />
        <text
           sodipodi:linespacing="125%"
           id="text4206"
           y="509.64352"
           x="225.77243"
           style="font-style:normal;font-variant:normal;font-weight:normal;font-stretch:normal;font-size:313.66415405px;line-height:125%;font-family:'Serto Batnan';-inkscape-font-specification:'Serto Batnan';letter-spacing:0px;word-spacing:0px;fill:#280b0b;fill-opacity:1;stroke:none;stroke-width:1px;stroke-linecap:butt;stroke-linejoin:miter;stroke-opacity:1"
           xml:space="preserve"><tspan
             y="509.64352"
             x="225.77243"
             id="tspan4208"
             sodipodi:role="line">も</tspan></text>
      </g>
      <path
         sodipodi:nodetypes="ccccccc"
         inkscape:connector-curvature="0"
         id="path4219"
         d="m 341.86074,444.32529 68.10523,90.33408 136.49151,0.26921 -103.17357,-146.85086 -47.85549,13.0515 -12.39629,31.30094 z"
         style="fill:#250808;fill-opacity:0.24313725;fill-rule:evenodd;stroke:none;stroke-width:1px;stroke-linecap:butt;stroke-linejoin:miter;stroke-opacity:1" />
    </g>
    <g
       transform="matrix(0.14423882,0,0,0.144,470.21986,619.11929)"
       id="g4279"
       inkscape:export-filename="/Users/jchu/logo_72.png"
       inkscape:export-xdpi="90"
       inkscape:export-ydpi="90">
      <path
         style="opacity:1;fill:#ff5555;fill-opacity:1;stroke:none;stroke-width:1.77416694"
         d="m 161.24609,182.62109 c -27.61424,0 -50,22.38576 -50,50 0.56904,133.09638 0,400 0,400 0,27.61424 22.38576,50 50,50 l 431.37111,-0.88671 c 9.8289,0 17.7422,-7.91331 17.7422,-17.74219 0,0 0.13239,-308.51442 0,-462.74219 0,-9.82888 -7.9133,-17.74219 -17.7422,-17.74219 -142.1695,0.007 -431.37111,-0.88672 -431.37111,-0.88672 z"
         id="path4281"
         inkscape:connector-curvature="0"
         sodipodi:nodetypes="ccccccccc" />
      <path
         style="opacity:1;fill:#f4e3d7;fill-opacity:1;stroke:none"
         d="m 181.625,560.1055 c -27.61424,0 -50,22.3858 -50,50 0,27.6142 22.38576,50 50,50 4.74982,0 9.33917,-0.0233 13.79297,-0.0684 0.37528,0.0424 0.75561,0.0684 1.14258,0.0684 l 377.97315,0 c 5.54,0 10,-4.46 10,-10 l 0,-80 c 0,-5.54 -4.46,-10 -10,-10 l -377.97315,0 c -0.33767,0 -0.67113,0.0164 -1,0.0488 -4.54544,-0.0256 -9.10323,-0.0488 -13.93555,-0.0488 z"
         id="path4283"
         inkscape:connector-curvature="0"
         sodipodi:nodetypes="ssscsssssscs" />
      <path
         style="opacity:1;fill:#ff8080;fill-opacity:1;stroke:none;stroke-width:1.77416694"
         d="m 190.45151,182.9263 401.13539,0 c 9.8639,0 17.778,7.941 17.8048,17.80485 l 0.9723,358.32437 c 0,0 -291.96365,-0.57993 -419.91249,-0.57993 -9.86388,0 -17.80484,-7.94097 -17.80484,-17.80485 l 0,-339.93959 c 0,-9.86389 7.94096,-17.80485 17.80484,-17.80485 z"
         id="path4285"
         inkscape:connector-curvature="0"
         sodipodi:nodetypes="sssccsss" />
      <text
         sodipodi:linespacing="125%"
         id="text4287"
         y="509.64352"
         x="225.77243"
         style="font-style:normal;font-variant:normal;font-weight:normal;font-stretch:normal;font-size:313.66415405px;line-height:125%;font-family:'Serto Batnan';-inkscape-font-specification:'Serto Batnan';letter-spacing:0px;word-spacing:0px;fill:#280b0b;fill-opacity:1;stroke:none;stroke-width:1px;stroke-linecap:butt;stroke-linejoin:miter;stroke-opacity:1"
         xml:space="preserve"><tspan
           y="509.64352"
           x="225.77243"
           id="tspan4289"
           sodipodi:role="line">も</tspan></text>
    </g>
    <g
       id="g4303"
       transform="matrix(0.09615921,0,0,0.096,481.56853,748.88511)"
       inkscape:export-filename="/Users/jchu/logo_48.png"
       inkscape:export-xdpi="90"
       inkscape:export-ydpi="90">
      <path
         sodipodi:nodetypes="ccccccccc"
         inkscape:connector-curvature="0"
         id="path4305"
         d="m 161.24609,182.62109 c -27.61424,0 -50,22.38576 -50,50 0.56904,133.09638 0,400 0,400 0,27.61424 22.38576,50 50,50 l 431.37111,-0.88671 c 9.8289,0 17.7422,-7.91331 17.7422,-17.74219 0,0 0.13239,-308.51442 0,-462.74219 0,-9.82888 -7.9133,-17.74219 -17.7422,-17.74219 -142.1695,0.007 -431.37111,-0.88672 -431.37111,-0.88672 z"
         style="opacity:1;fill:#ff5555;fill-opacity:1;stroke:none;stroke-width:1.77416694" />
      <path
         sodipodi:nodetypes="ssscsssssscs"
         inkscape:connector-curvature="0"
         id="path4307"
         d="m 181.625,560.1055 c -27.61424,0 -50,22.3858 -50,50 0,27.6142 22.38576,50 50,50 4.74982,0 9.33917,-0.0233 13.79297,-0.0684 0.37528,0.0424 0.75561,0.0684 1.14258,0.0684 l 377.97315,0 c 5.54,0 10,-4.46 10,-10 l 0,-80 c 0,-5.54 -4.46,-10 -10,-10 l -377.97315,0 c -0.33767,0 -0.67113,0.0164 -1,0.0488 -4.54544,-0.0256 -9.10323,-0.0488 -13.93555,-0.0488 z"
         style="opacity:1;fill:#f4e3d7;fill-opacity:1;stroke:none" />
      <path
         sodipodi:nodetypes="sssccsss"
         inkscape:connector-curvature="0"
         id="path4309"
         d="m 190.45151,182.9263 401.13539,0 c 9.8639,0 17.778,7.941 17.8048,17.80485 l 0.9723,358.32437 c 0,0 -291.96365,-0.57993 -419.91249,-0.57993 -9.86388,0 -17.80484,-7.94097 -17.80484,-17.80485 l 0,-339.93959 c 0,-9.86389 7.94096,-17.80485 17.80484,-17.80485 z"
         style="opacity:1;fill:#ff8080;fill-opacity:1;stroke:none;stroke-width:1.77416694" />
      <text
         xml:space="preserve"
         style="font-style:normal;font-variant:normal;font-weight:normal;font-stretch:normal;font-size:313.66415405px;line-height:125%;font-family:'Serto Batnan';-inkscape-font-specification:'Serto Batnan';letter-spacing:0px;word-spacing:0px;fill:#280b0b;fill-opacity:1;stroke:none;stroke-width:1px;stroke-linecap:butt;stroke-linejoin:miter;stroke-opacity:1"
         x="225.77243"
         y="509.64352"
         id="text4311"
         sodipodi:linespacing="125%"><tspan
           sodipodi:role="line"
           id="tspan4313"
           x="225.77243"
           y="509.64352">も</tspan></text>
    </g>
    <g
       transform="matrix(0.28856251,0,0,0.28856251,39.49565,693.0414)"
       id="g4315"
       inkscape:export-filename="/Users/jchu/launcher_icon_144.png"
       inkscape:export-xdpi="90"
       inkscape:export-ydpi="90">
      <circle
         style="opacity:1;fill:#acacac;fill-opacity:1;stroke:none;stroke-width:0.97465885;stroke-opacity:1"
         id="circle4317"
         cx="407.5"
         cy="472.86221"
         r="249.51266" />
      <ellipse
         cy="468.98657"
         cx="406.52533"
         id="ellipse4319"
         style="opacity:1;fill:#ffffff;fill-opacity:1;stroke:none;stroke-width:0.9518972;stroke-opacity:1"
         rx="244.65077"
         ry="242.72443" />
      <path
         inkscape:connector-curvature="0"
         style="opacity:1;fill:#250404;fill-opacity:0.24313725;stroke:none;stroke-width:0.9518972;stroke-opacity:1"
         d="M 541.58203,318.18555 263.69727,597.67969 406.52539,711.71094 A 244.65077,242.72443 0 0 0 651.17578,468.98633 L 541.58203,318.18555 Z"
         id="path4321" />
      <g
         id="g4323"
         transform="matrix(0.58576518,0,0,0.58479532,188.91411,207.44918)">
        <path
           sodipodi:nodetypes="ccccccccc"
           inkscape:connector-curvature="0"
           id="path4325"
           d="m 161.24609,182.62109 c -27.61424,0 -50,22.38576 -50,50 0.56904,133.09638 0,400 0,400 0,27.61424 22.38576,50 50,50 l 431.37111,-0.88671 c 9.8289,0 17.7422,-7.91331 17.7422,-17.74219 0,0 0.13239,-308.51442 0,-462.74219 0,-9.82888 -7.9133,-17.74219 -17.7422,-17.74219 -142.1695,0.007 -431.37111,-0.88672 -431.37111,-0.88672 z"
           style="opacity:1;fill:#ff5555;fill-opacity:1;stroke:none;stroke-width:1.77416694" />
        <path
           sodipodi:nodetypes="ssscsssssscs"
           inkscape:connector-curvature="0"
           id="path4327"
           d="m 181.625,560.1055 c -27.61424,0 -50,22.3858 -50,50 0,27.6142 22.38576,50 50,50 4.74982,0 9.33917,-0.0233 13.79297,-0.0684 0.37528,0.0424 0.75561,0.0684 1.14258,0.0684 l 377.97315,0 c 5.54,0 10,-4.46 10,-10 l 0,-80 c 0,-5.54 -4.46,-10 -10,-10 l -377.97315,0 c -0.33767,0 -0.67113,0.0164 -1,0.0488 -4.54544,-0.0256 -9.10323,-0.0488 -13.93555,-0.0488 z"
           style="opacity:1;fill:#f4e3d7;fill-opacity:1;stroke:none" />
        <path
           sodipodi:nodetypes="sssccsss"
           inkscape:connector-curvature="0"
           id="path4329"
           d="m 190.45151,182.9263 401.13539,0 c 9.8639,0 17.778,7.941 17.8048,17.80485 l 0.9723,358.32437 c 0,0 -291.96365,-0.57993 -419.91249,-0.57993 -9.86388,0 -17.80484,-7.94097 -17.80484,-17.80485 l 0,-339.93959 c 0,-9.86389 7.94096,-17.80485 17.80484,-17.80485 z"
           style="opacity:1;fill:#ff8080;fill-opacity:1;stroke:none;stroke-width:1.77416694" />
        <text
           xml:space="preserve"
           style="font-style:normal;font-variant:normal;font-weight:normal;font-stretch:normal;font-size:313.66415405px;line-height:125%;font-family:'Serto Batnan';-inkscape-font-specification:'Serto Batnan';letter-spacing:0px;word-spacing:0px;fill:#280b0b;fill-opacity:1;stroke:none;stroke-width:1px;stroke-linecap:butt;stroke-linejoin:miter;stroke-opacity:1"
           x="225.77243"
           y="509.64352"
           id="text4331"
           sodipodi:linespacing="125%"><tspan
             sodipodi:role="line"
             id="tspan4333"
             x="225.77243"
             y="509.64352">も</tspan></text>
      </g>
      <path
         style="fill:#250808;fill-opacity:0.24313725;fill-rule:evenodd;stroke:none;stroke-width:1px;stroke-linecap:butt;stroke-linejoin:miter;stroke-opacity:1"
         d="m 341.86074,444.32529 68.10523,90.33408 136.49151,0.26921 -103.17357,-146.85086 -47.85549,13.0515 -12.39629,31.30094 z"
         id="path4335"
         inkscape:connector-curvature="0"
         sodipodi:nodetypes="ccccccc" />
    </g>
    <g
       inkscape:export-ydpi="90"
       inkscape:export-xdpi="90"
       inkscape:export-filename="/Users/jchu/launcher_icon_192.png"
       id="g4191"
       transform="matrix(0.38475001,0,0,0.38475001,1.299243,444.55797)">
      <circle
         r="249.51266"
         cy="472.86221"
         cx="407.5"
         id="circle4193"
         style="opacity:1;fill:#acacac;fill-opacity:1;stroke:none;stroke-width:0.97465885;stroke-opacity:1" />
      <ellipse
         ry="242.72443"
         rx="244.65077"
         style="opacity:1;fill:#ffffff;fill-opacity:1;stroke:none;stroke-width:0.9518972;stroke-opacity:1"
         id="ellipse4195"
         cx="406.52533"
         cy="468.98657" />
      <path
         id="path4197"
         d="M 541.58203,318.18555 263.69727,597.67969 406.52539,711.71094 A 244.65077,242.72443 0 0 0 651.17578,468.98633 L 541.58203,318.18555 Z"
         style="opacity:1;fill:#250404;fill-opacity:0.24313725;stroke:none;stroke-width:0.9518972;stroke-opacity:1"
         inkscape:connector-curvature="0" />
      <g
         transform="matrix(0.58576518,0,0,0.58479532,188.91411,207.44918)"
         id="g4199">
        <path
           style="opacity:1;fill:#ff5555;fill-opacity:1;stroke:none;stroke-width:1.77416694"
           d="m 161.24609,182.62109 c -27.61424,0 -50,22.38576 -50,50 0.56904,133.09638 0,400 0,400 0,27.61424 22.38576,50 50,50 l 431.37111,-0.88671 c 9.8289,0 17.7422,-7.91331 17.7422,-17.74219 0,0 0.13239,-308.51442 0,-462.74219 0,-9.82888 -7.9133,-17.74219 -17.7422,-17.74219 -142.1695,0.007 -431.37111,-0.88672 -431.37111,-0.88672 z"
           id="path4201"
           inkscape:connector-curvature="0"
           sodipodi:nodetypes="ccccccccc" />
        <path
           style="opacity:1;fill:#f4e3d7;fill-opacity:1;stroke:none"
           d="m 181.625,560.1055 c -27.61424,0 -50,22.3858 -50,50 0,27.6142 22.38576,50 50,50 4.74982,0 9.33917,-0.0233 13.79297,-0.0684 0.37528,0.0424 0.75561,0.0684 1.14258,0.0684 l 377.97315,0 c 5.54,0 10,-4.46 10,-10 l 0,-80 c 0,-5.54 -4.46,-10 -10,-10 l -377.97315,0 c -0.33767,0 -0.67113,0.0164 -1,0.0488 -4.54544,-0.0256 -9.10323,-0.0488 -13.93555,-0.0488 z"
           id="path4203"
           inkscape:connector-curvature="0"
           sodipodi:nodetypes="ssscsssssscs" />
        <path
           style="opacity:1;fill:#ff8080;fill-opacity:1;stroke:none;stroke-width:1.77416694"
           d="m 190.45151,182.9263 401.13539,0 c 9.8639,0 17.778,7.941 17.8048,17.80485 l 0.9723,358.32437 c 0,0 -291.96365,-0.57993 -419.91249,-0.57993 -9.86388,0 -17.80484,-7.94097 -17.80484,-17.80485 l 0,-339.93959 c 0,-9.86389 7.94096,-17.80485 17.80484,-17.80485 z"
           id="path4205"
           inkscape:connector-curvature="0"
           sodipodi:nodetypes="sssccsss" />
        <text
           sodipodi:linespacing="125%"
           id="text4207"
           y="509.64352"
           x="225.77243"
           style="font-style:normal;font-variant:normal;font-weight:normal;font-stretch:normal;font-size:313.66415405px;line-height:125%;font-family:'Serto Batnan';-inkscape-font-specification:'Serto Batnan';letter-spacing:0px;word-spacing:0px;fill:#280b0b;fill-opacity:1;stroke:none;stroke-width:1px;stroke-linecap:butt;stroke-linejoin:miter;stroke-opacity:1"
           xml:space="preserve"><tspan
             y="509.64352"
             x="225.77243"
             id="tspan4209"
             sodipodi:role="line">も</tspan></text>
      </g>
      <path
         sodipodi:nodetypes="ccccccc"
         inkscape:connector-curvature="0"
         id="path4211"
         d="m 341.86074,444.32529 68.10523,90.33408 136.49151,0.26921 -103.17357,-146.85086 -47.85549,13.0515 -12.39629,31.30094 z"
         style="fill:#250808;fill-opacity:0.24313725;fill-rule:evenodd;stroke:none;stroke-width:1px;stroke-linecap:butt;stroke-linejoin:miter;stroke-opacity:1" />
    </g>
    <g
       inkscape:export-ydpi="90"
       inkscape:export-xdpi="90"
       inkscape:export-filename="/Users/jchu/launcher_icon_96.png"
       id="g4213"
       transform="matrix(0.192375,0,0,0.192375,75.692058,875.52484)">
      <circle
         r="249.51266"
         cy="472.86221"
         cx="407.5"
         id="circle4215"
         style="opacity:1;fill:#acacac;fill-opacity:1;stroke:none;stroke-width:0.97465885;stroke-opacity:1" />
      <ellipse
         ry="242.72443"
         rx="244.65077"
         style="opacity:1;fill:#ffffff;fill-opacity:1;stroke:none;stroke-width:0.9518972;stroke-opacity:1"
         id="ellipse4217"
         cx="406.52533"
         cy="468.98657" />
      <path
         id="path4220"
         d="M 541.58203,318.18555 263.69727,597.67969 406.52539,711.71094 A 244.65077,242.72443 0 0 0 651.17578,468.98633 L 541.58203,318.18555 Z"
         style="opacity:1;fill:#250404;fill-opacity:0.24313725;stroke:none;stroke-width:0.9518972;stroke-opacity:1"
         inkscape:connector-curvature="0" />
      <g
         transform="matrix(0.58576518,0,0,0.58479532,188.91411,207.44918)"
         id="g4222">
        <path
           style="opacity:1;fill:#ff5555;fill-opacity:1;stroke:none;stroke-width:1.77416694"
           d="m 161.24609,182.62109 c -27.61424,0 -50,22.38576 -50,50 0.56904,133.09638 0,400 0,400 0,27.61424 22.38576,50 50,50 l 431.37111,-0.88671 c 9.8289,0 17.7422,-7.91331 17.7422,-17.74219 0,0 0.13239,-308.51442 0,-462.74219 0,-9.82888 -7.9133,-17.74219 -17.7422,-17.74219 -142.1695,0.007 -431.37111,-0.88672 -431.37111,-0.88672 z"
           id="path4224"
           inkscape:connector-curvature="0"
           sodipodi:nodetypes="ccccccccc" />
        <path
           style="opacity:1;fill:#f4e3d7;fill-opacity:1;stroke:none"
           d="m 181.625,560.1055 c -27.61424,0 -50,22.3858 -50,50 0,27.6142 22.38576,50 50,50 4.74982,0 9.33917,-0.0233 13.79297,-0.0684 0.37528,0.0424 0.75561,0.0684 1.14258,0.0684 l 377.97315,0 c 5.54,0 10,-4.46 10,-10 l 0,-80 c 0,-5.54 -4.46,-10 -10,-10 l -377.97315,0 c -0.33767,0 -0.67113,0.0164 -1,0.0488 -4.54544,-0.0256 -9.10323,-0.0488 -13.93555,-0.0488 z"
           id="path4226"
           inkscape:connector-curvature="0"
           sodipodi:nodetypes="ssscsssssscs" />
        <path
           style="opacity:1;fill:#ff8080;fill-opacity:1;stroke:none;stroke-width:1.77416694"
           d="m 190.45151,182.9263 401.13539,0 c 9.8639,0 17.778,7.941 17.8048,17.80485 l 0.9723,358.32437 c 0,0 -291.96365,-0.57993 -419.91249,-0.57993 -9.86388,0 -17.80484,-7.94097 -17.80484,-17.80485 l 0,-339.93959 c 0,-9.86389 7.94096,-17.80485 17.80484,-17.80485 z"
           id="path4228"
           inkscape:connector-curvature="0"
           sodipodi:nodetypes="sssccsss" />
        <text
           sodipodi:linespacing="125%"
           id="text4230"
           y="509.64352"
           x="225.77243"
           style="font-style:normal;font-variant:normal;font-weight:normal;font-stretch:normal;font-size:313.66415405px;line-height:125%;font-family:'Serto Batnan';-inkscape-font-specification:'Serto Batnan';letter-spacing:0px;word-spacing:0px;fill:#280b0b;fill-opacity:1;stroke:none;stroke-width:1px;stroke-linecap:butt;stroke-linejoin:miter;stroke-opacity:1"
           xml:space="preserve"><tspan
             y="509.64352"
             x="225.77243"
             id="tspan4232"
             sodipodi:role="line">も</tspan></text>
      </g>
      <path
         sodipodi:nodetypes="ccccccc"
         inkscape:connector-curvature="0"
         id="path4234"
         d="m 341.86074,444.32529 68.10523,90.33408 136.49151,0.26921 -103.17357,-146.85086 -47.85549,13.0515 -12.39629,31.30094 z"
         style="fill:#250808;fill-opacity:0.24313725;fill-rule:evenodd;stroke:none;stroke-width:1px;stroke-linecap:butt;stroke-linejoin:miter;stroke-opacity:1" />
    </g>
    <g
       transform="matrix(0.14428125,0,0,0.14428125,291.29026,583.26655)"
       id="g4236"
       inkscape:export-filename="/Users/jchu/launcher_icon_72.png"
       inkscape:export-xdpi="90"
       inkscape:export-ydpi="90">
      <circle
         style="opacity:1;fill:#acacac;fill-opacity:1;stroke:none;stroke-width:0.97465885;stroke-opacity:1"
         id="circle4238"
         cx="407.5"
         cy="472.86221"
         r="249.51266" />
      <ellipse
         cy="468.98657"
         cx="406.52533"
         id="ellipse4240"
         style="opacity:1;fill:#ffffff;fill-opacity:1;stroke:none;stroke-width:0.9518972;stroke-opacity:1"
         rx="244.65077"
         ry="242.72443" />
      <path
         inkscape:connector-curvature="0"
         style="opacity:1;fill:#250404;fill-opacity:0.24313725;stroke:none;stroke-width:0.9518972;stroke-opacity:1"
         d="M 541.58203,318.18555 263.69727,597.67969 406.52539,711.71094 A 244.65077,242.72443 0 0 0 651.17578,468.98633 L 541.58203,318.18555 Z"
         id="path4242" />
      <g
         id="g4244"
         transform="matrix(0.58576518,0,0,0.58479532,188.91411,207.44918)">
        <path
           sodipodi:nodetypes="ccccccccc"
           inkscape:connector-curvature="0"
           id="path4246"
           d="m 161.24609,182.62109 c -27.61424,0 -50,22.38576 -50,50 0.56904,133.09638 0,400 0,400 0,27.61424 22.38576,50 50,50 l 431.37111,-0.88671 c 9.8289,0 17.7422,-7.91331 17.7422,-17.74219 0,0 0.13239,-308.51442 0,-462.74219 0,-9.82888 -7.9133,-17.74219 -17.7422,-17.74219 -142.1695,0.007 -431.37111,-0.88672 -431.37111,-0.88672 z"
           style="opacity:1;fill:#ff5555;fill-opacity:1;stroke:none;stroke-width:1.77416694" />
        <path
           sodipodi:nodetypes="ssscsssssscs"
           inkscape:connector-curvature="0"
           id="path4248"
           d="m 181.625,560.1055 c -27.61424,0 -50,22.3858 -50,50 0,27.6142 22.38576,50 50,50 4.74982,0 9.33917,-0.0233 13.79297,-0.0684 0.37528,0.0424 0.75561,0.0684 1.14258,0.0684 l 377.97315,0 c 5.54,0 10,-4.46 10,-10 l 0,-80 c 0,-5.54 -4.46,-10 -10,-10 l -377.97315,0 c -0.33767,0 -0.67113,0.0164 -1,0.0488 -4.54544,-0.0256 -9.10323,-0.0488 -13.93555,-0.0488 z"
           style="opacity:1;fill:#f4e3d7;fill-opacity:1;stroke:none" />
        <path
           sodipodi:nodetypes="sssccsss"
           inkscape:connector-curvature="0"
           id="path4250"
           d="m 190.45151,182.9263 401.13539,0 c 9.8639,0 17.778,7.941 17.8048,17.80485 l 0.9723,358.32437 c 0,0 -291.96365,-0.57993 -419.91249,-0.57993 -9.86388,0 -17.80484,-7.94097 -17.80484,-17.80485 l 0,-339.93959 c 0,-9.86389 7.94096,-17.80485 17.80484,-17.80485 z"
           style="opacity:1;fill:#ff8080;fill-opacity:1;stroke:none;stroke-width:1.77416694" />
        <text
           xml:space="preserve"
           style="font-style:normal;font-variant:normal;font-weight:normal;font-stretch:normal;font-size:313.66415405px;line-height:125%;font-family:'Serto Batnan';-inkscape-font-specification:'Serto Batnan';letter-spacing:0px;word-spacing:0px;fill:#280b0b;fill-opacity:1;stroke:none;stroke-width:1px;stroke-linecap:butt;stroke-linejoin:miter;stroke-opacity:1"
           x="225.77243"
           y="509.64352"
           id="text4252"
           sodipodi:linespacing="125%"><tspan
             sodipodi:role="line"
             id="tspan4254"
             x="225.77243"
             y="509.64352">も</tspan></text>
      </g>
      <path
         style="fill:#250808;fill-opacity:0.24313725;fill-rule:evenodd;stroke:none;stroke-width:1px;stroke-linecap:butt;stroke-linejoin:miter;stroke-opacity:1"
         d="m 341.86074,444.32529 68.10523,90.33408 136.49151,0.26921 -103.17357,-146.85086 -47.85549,13.0515 -12.39629,31.30094 z"
         id="path4256"
         inkscape:connector-curvature="0"
         sodipodi:nodetypes="ccccccc" />
    </g>
    <g
       inkscape:export-ydpi="90"
       inkscape:export-xdpi="90"
       inkscape:export-filename="/Users/jchu/launcher_icon_48.png"
       id="g4258"
       transform="matrix(0.0961875,0,0,0.0961875,299.88846,741.00827)">
      <circle
         r="249.51266"
         cy="472.86221"
         cx="407.5"
         id="circle4260"
         style="opacity:1;fill:#acacac;fill-opacity:1;stroke:none;stroke-width:0.97465885;stroke-opacity:1" />
      <ellipse
         ry="242.72443"
         rx="244.65077"
         style="opacity:1;fill:#ffffff;fill-opacity:1;stroke:none;stroke-width:0.9518972;stroke-opacity:1"
         id="ellipse4262"
         cx="406.52533"
         cy="468.98657" />
      <path
         id="path4264"
         d="M 541.58203,318.18555 263.69727,597.67969 406.52539,711.71094 A 244.65077,242.72443 0 0 0 651.17578,468.98633 L 541.58203,318.18555 Z"
         style="opacity:1;fill:#250404;fill-opacity:0.24313725;stroke:none;stroke-width:0.9518972;stroke-opacity:1"
         inkscape:connector-curvature="0" />
      <g
         transform="matrix(0.58576518,0,0,0.58479532,188.91411,207.44918)"
         id="g4266">
        <path
           style="opacity:1;fill:#ff5555;fill-opacity:1;stroke:none;stroke-width:1.77416694"
           d="m 161.24609,182.62109 c -27.61424,0 -50,22.38576 -50,50 0.56904,133.09638 0,400 0,400 0,27.61424 22.38576,50 50,50 l 431.37111,-0.88671 c 9.8289,0 17.7422,-7.91331 17.7422,-17.74219 0,0 0.13239,-308.51442 0,-462.74219 0,-9.82888 -7.9133,-17.74219 -17.7422,-17.74219 -142.1695,0.007 -431.37111,-0.88672 -431.37111,-0.88672 z"
           id="path4268"
           inkscape:connector-curvature="0"
           sodipodi:nodetypes="ccccccccc" />
        <path
           style="opacity:1;fill:#f4e3d7;fill-opacity:1;stroke:none"
           d="m 181.625,560.1055 c -27.61424,0 -50,22.3858 -50,50 0,27.6142 22.38576,50 50,50 4.74982,0 9.33917,-0.0233 13.79297,-0.0684 0.37528,0.0424 0.75561,0.0684 1.14258,0.0684 l 377.97315,0 c 5.54,0 10,-4.46 10,-10 l 0,-80 c 0,-5.54 -4.46,-10 -10,-10 l -377.97315,0 c -0.33767,0 -0.67113,0.0164 -1,0.0488 -4.54544,-0.0256 -9.10323,-0.0488 -13.93555,-0.0488 z"
           id="path4270"
           inkscape:connector-curvature="0"
           sodipodi:nodetypes="ssscsssssscs" />
        <path
           style="opacity:1;fill:#ff8080;fill-opacity:1;stroke:none;stroke-width:1.77416694"
           d="m 190.45151,182.9263 401.13539,0 c 9.8639,0 17.778,7.941 17.8048,17.80485 l 0.9723,358.32437 c 0,0 -291.96365,-0.57993 -419.91249,-0.57993 -9.86388,0 -17.80484,-7.94097 -17.80484,-17.80485 l 0,-339.93959 c 0,-9.86389 7.94096,-17.80485 17.80484,-17.80485 z"
           id="path4272"
           inkscape:connector-curvature="0"
           sodipodi:nodetypes="sssccsss" />
        <text
           sodipodi:linespacing="125%"
           id="text4274"
           y="509.64352"
           x="225.77243"
           style="font-style:normal;font-variant:normal;font-weight:normal;font-stretch:normal;font-size:313.66415405px;line-height:125%;font-family:'Serto Batnan';-inkscape-font-specification:'Serto Batnan';letter-spacing:0px;word-spacing:0px;fill:#280b0b;fill-opacity:1;stroke:none;stroke-width:1px;stroke-linecap:butt;stroke-linejoin:miter;stroke-opacity:1"
           xml:space="preserve"><tspan
             y="509.64352"
             x="225.77243"
             id="tspan4276"
             sodipodi:role="line">も</tspan></text>
      </g>
      <path
         sodipodi:nodetypes="ccccccc"
         inkscape:connector-curvature="0"
         id="path4278"
         d="m 341.86074,444.32529 68.10523,90.33408 136.49151,0.26921 -103.17357,-146.85086 -47.85549,13.0515 -12.39629,31.30094 z"
         style="fill:#250808;fill-opacity:0.24313725;fill-rule:evenodd;stroke:none;stroke-width:1px;stroke-linecap:butt;stroke-linejoin:miter;stroke-opacity:1" />
    </g>
  </g>
</svg>
